PathFileType	4	(X/Y/Z)	C:\Users\WrightLab\Desktop\Jo\P2_Trial10.trc
DataRate	CameraRate	NumFrames	NumMarkers	Units	OrigDataRate	OrigDataStartFrame	OrigNumFrames
100.00	100.00	       8	19	mm	100.00	314	       837
Frame#	Time	Headset_Front			Headset_Back			Headset_Left			Headset_Right			Left_Shoulder			Right_Shoulder			Sternum			C7			Left Elbow			Right Elbow			Left Wrist			Right Wrist			Left ASIS			Right ASIS			S2			Left Knee			Right Knee			Left Ankle			Right Ankle			
		X1	Y1	Z1	X2	Y2	Z2	X3	Y3	Z3	X4	Y4	Z4	X5	Y5	Z5	X6	Y6	Z6	X7	Y7	Z7	X8	Y8	Z8	X9	Y9	Z9	X10	Y10	Z10	X11	Y11	Z11	X12	Y12	Z12	X13	Y13	Z13	X14	Y14	Z14	X15	Y15	Z15	X16	Y16	Z16	X17	Y17	Z17	X18	Y18	Z18	X19	Y19	Z19	

314	3.130	-782.19922	1510.83215	-887.22595	-672.39038	1460.73401	-789.27899	-510.03613	1404.43201	-992.48120							-830.44537	1380.08398	-1074.87891	-677.97266	1269.36987	-986.58624	-658.06946	1398.60938	-1146.85547	-357.62653	1078.13770	-1059.88721	-562.18488	918.54517	-1238.91504	-292.56564	846.44623	-1134.97803	-873.66302	839.98822	-1013.60071	-630.38763	991.15656	-975.08093	-745.71777	977.04102	-1026.43311				-568.35693	425.02194	-920.78387				-579.87561	101.87624	-792.02203				
315	3.140	-784.64258	1509.11438	-878.14117	-673.88293	1459.59766	-780.31439	-512.54846	1402.96545	-985.85962							-834.12152	1378.79578	-1065.35107	-680.60944	1268.01941	-979.01965	-661.67047	1397.04858	-1138.47449	-360.52673	1076.51221	-1052.40051				-294.43246	843.96954	-1130.48071	-876.28833	837.19006	-1003.74652	-632.20160	988.28729	-968.63647	-747.60156	974.91071	-1017.24078				-572.40338	424.41135	-911.71478				-590.45966	108.80614	-772.77045				
316	3.150	-785.61981	1506.21338	-868.25482	-674.91339	1458.31445	-771.65125	-515.19824	1401.88452	-978.26678							-836.89398	1376.76746	-1055.16455	-682.47192	1265.55188	-969.29974	-665.11334	1395.57434	-1129.99756	-363.13959	1075.39099	-1047.77332	-913.29633	1051.73682	-1128.43640	-299.52472	841.48694	-1119.64587	-878.96295	834.53339	-993.81165	-634.58551	987.50806	-955.99738	-749.39886	973.64020	-1008.90900				-575.91162	425.77664	-903.70239				-599.70404	115.86697	-757.27521				
317	3.160	-788.35767	1505.37317	-859.52563	-677.39722	1456.16357	-763.12640	-517.24005	1399.83020	-967.88525							-839.59857	1375.33044	-1045.42236	-684.78870	1264.84827	-961.51831	-668.50940	1393.85657	-1121.75940	-366.81015	1072.98096	-1038.55237	-916.49243	1050.09949	-1116.29785	-304.69925	838.58203	-1109.81653	-881.69592	831.78265	-983.64996	-636.06439	986.40405	-950.24805	-752.85626	971.87061	-999.43378				-579.89874	426.00998	-895.18872				-608.15930	122.30931	-743.41309				
318	3.170	-790.80872	1503.44470	-849.94641				-519.89154	1398.19312	-961.68494							-842.12708	1374.22034	-1035.69763	-688.25391	1263.41809	-952.87915	-671.70874	1392.18713	-1112.92419	-370.55603	1070.80591	-1029.53088	-919.57391	1048.59753	-1104.64575	-310.07843	836.08337	-1099.94946	-884.33447	829.56750	-973.57770	-639.05554	984.32135	-941.00891	-755.08832	970.12274	-990.12872	-574.64642	912.44141	-1205.56580	-583.67242	426.10361	-886.72198				-615.42078	127.08563	-729.70770				
319	3.180	-792.18921	1502.09790	-841.10095				-521.88440	1396.48108	-953.69513							-845.03821	1372.44983	-1025.99756	-690.15015	1261.09692	-943.25568	-674.59064	1390.88867	-1104.08557	-373.49548	1068.14294	-1022.05011	-922.41895	1046.90100	-1092.72815	-315.40228	832.75714	-1091.35547	-887.05151	827.00464	-963.69611				-757.27008	967.43774	-980.42249	-577.86145	911.39807	-1197.46777	-586.94073	426.41226	-879.13715				-623.87695	131.20634	-717.81427				
320	3.190	-794.41937	1500.66736	-831.77972	-681.62408	1451.00537	-735.48242	-523.71649	1395.02307	-946.52875							-846.98529	1371.21619	-1016.47552	-691.73700	1260.10181	-934.45172	-677.47522	1389.22058	-1095.38733	-377.15591	1066.08264	-1013.08020	-925.10114	1045.43896	-1081.49695	-319.89423	833.79559	-1075.04346	-889.93866	825.01862	-953.66229	-641.49481	983.16473	-918.56909	-760.09448	965.83118	-971.21881	-580.97461	909.48993	-1187.56750	-591.52533	426.72556	-868.80621				-630.91663	134.09727	-704.35913				
321	3.200	-794.41803	1497.94885	-822.54504	-682.14008	1449.99487	-726.59607	-525.25952	1394.59558	-940.50183							-848.83313	1370.05920	-1007.53674	-694.30389	1259.42285	-925.70667	-680.11169	1387.48828	-1086.77527	-380.85025	1064.09619	-1005.78699	-927.34595	1044.19128	-1070.24512	-324.95078	830.30658	-1063.59753	-893.06903	823.09503	-943.95477	-645.92645	980.54205	-913.25629	-763.43890	965.23352	-960.63684	-583.88092	908.46655	-1179.07813	-595.32538	425.66098	-859.85370				-637.01392	135.94791	-692.32068				
